<?xml version="1.0" encoding="iso-8859-1"?>
<!-- Generator: Adobe Illustrator 19.0.0, SVG Export Plug-In . SVG Version: 6.00 Build 0)  -->
<svg version="1.1" id="Capa_1" xmlns="http://www.w3.org/2000/svg" xmlns:xlink="http://www.w3.org/1999/xlink" x="0px" y="0px"
	 viewBox="0 0 512 512" style="enable-background:new 0 0 512 512;" xml:space="preserve">
<polyline style="fill:#4398D1;" points="229.517,423.724 0,423.724 0,61.793 512,61.793 512,423.724 282.483,423.724 "/>
<polygon style="fill:#3E8CC7;" points="52.63,423.724 229.517,423.724 282.483,423.724 512,423.724 512,61.793 465.602,61.793 "/>
<path style="fill:#126099;" d="M441.379,397.241H70.621c-4.873,0-8.828-3.955-8.828-8.828c0-14.627-11.855-26.483-26.483-26.483
	c-4.873,0-8.828-3.955-8.828-8.828v-220.69c0-4.873,3.955-8.828,8.828-8.828c14.627,0,26.483-11.855,26.483-26.483
	c0-4.873,3.955-8.828,8.828-8.828h370.759c4.873,0,8.828,3.955,8.828,8.828c0,14.627,11.855,26.483,26.483,26.483
	c4.873,0,8.828,3.955,8.828,8.828v220.69c0,4.873-3.955,8.828-8.828,8.828c-14.627,0-26.483,11.855-26.483,26.483
	C450.207,393.287,446.252,397.241,441.379,397.241z M78.566,379.586h354.869c3.566-17.329,17.099-30.861,34.428-34.428v-204.8
	c-17.329-3.566-30.861-17.099-34.428-34.428H78.566c-3.566,17.329-17.099,30.861-34.428,34.428v204.8
	C61.466,348.725,74.999,362.258,78.566,379.586z"/>
<polygon style="fill:#DE4C3C;" points="229.517,388.414 229.517,450.207 256,432.552 282.483,450.207 282.483,388.414 "/>
<g>
	<rect x="194.207" y="132.414" style="fill:#C7C7C7;" width="123.586" height="17.655"/>
	<rect x="88.276" y="176.552" style="fill:#C7C7C7;" width="344.276" height="17.655"/>
	<rect x="158.897" y="220.69" style="fill:#C7C7C7;" width="194.207" height="17.655"/>
	<rect x="123.586" y="264.828" style="fill:#C7C7C7;" width="256" height="17.655"/>
	<rect x="97.103" y="326.621" style="fill:#C7C7C7;" width="79.448" height="17.655"/>
	<rect x="335.448" y="326.621" style="fill:#C7C7C7;" width="79.448" height="17.655"/>
</g>
<circle style="fill:#FDB62F;" cx="256" cy="353.103" r="44.138"/>
<g>
</g>
<g>
</g>
<g>
</g>
<g>
</g>
<g>
</g>
<g>
</g>
<g>
</g>
<g>
</g>
<g>
</g>
<g>
</g>
<g>
</g>
<g>
</g>
<g>
</g>
<g>
</g>
<g>
</g>
</svg>
