<?xml version="1.0" encoding="iso-8859-1"?>
<!-- Generator: Adobe Illustrator 19.0.0, SVG Export Plug-In . SVG Version: 6.00 Build 0)  -->
<svg version="1.1" id="Capa_1" xmlns="http://www.w3.org/2000/svg" xmlns:xlink="http://www.w3.org/1999/xlink" x="0px" y="0px"
	 viewBox="0 0 512 512" style="enable-background:new 0 0 512 512;" xml:space="preserve">
<path style="fill:#2481BF;" d="M88.276,211.862v229.517c56.867,0,111.757,20.868,154.253,58.65L256,512l13.471-11.97
	c42.496-37.782,97.386-58.65,154.253-58.65V211.862H88.276z"/>
<polygon style="fill:#2170B0;" points="423.724,260.873 423.724,220.672 88.276,220.672 88.276,260.873 256,370.759 "/>
<polygon style="fill:#4398D1;" points="256,0 0,167.724 256,335.448 512,167.724 "/>
<path style="fill:#F46B27;" d="M485.517,432.552h-17.655v-231.23l-209.329-45.568l3.761-17.258l216.276,47.086
	c4.052,0.883,6.947,4.476,6.947,8.625V432.552z"/>
<g>
	<circle style="fill:#FDB62F;" cx="256" cy="150.069" r="17.655"/>
	<path style="fill:#FDB62F;" d="M494.345,441.379v-17.655c0-9.754-7.901-17.655-17.655-17.655c-9.754,0-17.655,7.901-17.655,17.655
		v17.655L441.379,512H512L494.345,441.379z"/>
</g>
<g>
</g>
<g>
</g>
<g>
</g>
<g>
</g>
<g>
</g>
<g>
</g>
<g>
</g>
<g>
</g>
<g>
</g>
<g>
</g>
<g>
</g>
<g>
</g>
<g>
</g>
<g>
</g>
<g>
</g>
</svg>
